<svg width="543" height="111" viewBox="0 0 543 111" fill="none" xmlns="http://www.w3.org/2000/svg">
<path d="M35.8714 111V38.0278L92.9999 12.3333V85.3056L35.8714 111Z" fill="url(#paint0_linear_1_67)"/>
<path d="M0 98.6667V25.6944L57.1286 0V72.9722L0 98.6667Z" fill="url(#paint1_linear_1_67)"/>
<path d="M57.1286 28.467V72.9722L35.8713 82.533L35.8714 38.0278L57.1286 28.467Z" fill="url(#paint2_linear_1_67)"/>
<path d="M123.112 55.472C123.112 51.0347 124.072 47.088 125.992 43.632C127.912 40.1333 130.579 37.424 133.992 35.504C137.448 33.5413 141.352 32.56 145.704 32.56C151.037 32.56 155.603 33.968 159.4 36.784C163.197 39.6 165.736 43.44 167.016 48.304H154.984C154.088 46.4267 152.808 44.9973 151.144 44.016C149.523 43.0347 147.667 42.544 145.576 42.544C142.205 42.544 139.475 43.7173 137.384 46.064C135.293 48.4107 134.248 51.5467 134.248 55.472C134.248 59.3973 135.293 62.5333 137.384 64.88C139.475 67.2267 142.205 68.4 145.576 68.4C147.667 68.4 149.523 67.9093 151.144 66.928C152.808 65.9467 154.088 64.5173 154.984 62.64H167.016C165.736 67.504 163.197 71.344 159.4 74.16C155.603 76.9333 151.037 78.32 145.704 78.32C141.352 78.32 137.448 77.36 133.992 75.44C130.579 73.4773 127.912 70.768 125.992 67.312C124.072 63.856 123.112 59.9093 123.112 55.472Z" fill="white"/>
<path d="M195.67 41.904C199.766 41.904 203.051 43.2693 205.526 46C208.001 48.688 209.238 52.4 209.238 57.136V78H198.358V58.608C198.358 56.2187 197.739 54.3627 196.502 53.04C195.265 51.7173 193.601 51.056 191.51 51.056C189.419 51.056 187.755 51.7173 186.518 53.04C185.281 54.3627 184.662 56.2187 184.662 58.608V78H173.718V30.64H184.662V47.088C185.771 45.5093 187.286 44.2507 189.206 43.312C191.126 42.3733 193.281 41.904 195.67 41.904Z" fill="white"/>
<path d="M227.787 48.24C229.067 46.2773 230.667 44.7413 232.587 43.632C234.507 42.48 236.64 41.904 238.987 41.904V53.488H235.979C233.248 53.488 231.2 54.0853 229.835 55.28C228.47 56.432 227.787 58.48 227.787 61.424V78H216.843V42.288H227.787V48.24Z" fill="white"/>
<path d="M260.474 78.512C256.975 78.512 253.818 77.7653 251.002 76.272C248.229 74.7787 246.031 72.6453 244.41 69.872C242.831 67.0987 242.042 63.856 242.042 60.144C242.042 56.4747 242.853 53.2533 244.474 50.48C246.095 47.664 248.314 45.5093 251.13 44.016C253.946 42.5227 257.103 41.776 260.602 41.776C264.101 41.776 267.258 42.5227 270.074 44.016C272.89 45.5093 275.109 47.664 276.73 50.48C278.351 53.2533 279.162 56.4747 279.162 60.144C279.162 63.8133 278.33 67.056 276.666 69.872C275.045 72.6453 272.805 74.7787 269.946 76.272C267.13 77.7653 263.973 78.512 260.474 78.512ZM260.474 69.04C262.565 69.04 264.335 68.272 265.786 66.736C267.279 65.2 268.026 63.0027 268.026 60.144C268.026 57.2853 267.301 55.088 265.85 53.552C264.442 52.016 262.693 51.248 260.602 51.248C258.469 51.248 256.698 52.016 255.29 53.552C253.882 55.0453 253.178 57.2427 253.178 60.144C253.178 63.0027 253.861 65.2 255.226 66.736C256.634 68.272 258.383 69.04 260.474 69.04Z" fill="white"/>
<path d="M306.728 41.904C310.909 41.904 314.237 43.2693 316.712 46C319.229 48.688 320.488 52.4 320.488 57.136V78H309.608V58.608C309.608 56.2187 308.989 54.3627 307.752 53.04C306.515 51.7173 304.851 51.056 302.76 51.056C300.669 51.056 299.005 51.7173 297.768 53.04C296.531 54.3627 295.912 56.2187 295.912 58.608V78H284.968V42.288H295.912V47.024C297.021 45.4453 298.515 44.208 300.392 43.312C302.269 42.3733 304.381 41.904 306.728 41.904Z" fill="white"/>
<path d="M344.349 78.512C340.85 78.512 337.693 77.7653 334.877 76.272C332.104 74.7787 329.906 72.6453 328.285 69.872C326.706 67.0987 325.917 63.856 325.917 60.144C325.917 56.4747 326.728 53.2533 328.349 50.48C329.97 47.664 332.189 45.5093 335.005 44.016C337.821 42.5227 340.978 41.776 344.477 41.776C347.976 41.776 351.133 42.5227 353.949 44.016C356.765 45.5093 358.984 47.664 360.605 50.48C362.226 53.2533 363.037 56.4747 363.037 60.144C363.037 63.8133 362.205 67.056 360.541 69.872C358.92 72.6453 356.68 74.7787 353.821 76.272C351.005 77.7653 347.848 78.512 344.349 78.512ZM344.349 69.04C346.44 69.04 348.21 68.272 349.661 66.736C351.154 65.2 351.901 63.0027 351.901 60.144C351.901 57.2853 351.176 55.088 349.725 53.552C348.317 52.016 346.568 51.248 344.477 51.248C342.344 51.248 340.573 52.016 339.165 53.552C337.757 55.0453 337.053 57.2427 337.053 60.144C337.053 63.0027 337.736 65.2 339.101 66.736C340.509 68.272 342.258 69.04 344.349 69.04Z" fill="white"/>
<path d="M430.667 33.072L418.955 78H405.707L398.539 48.432L391.115 78H377.867L366.475 33.072H378.187L384.651 65.776L392.651 33.072H404.683L412.363 65.776L418.891 33.072H430.667Z" fill="white"/>
<path d="M447.099 48.24C448.379 46.2773 449.979 44.7413 451.9 43.632C453.82 42.48 455.953 41.904 458.299 41.904V53.488H455.292C452.561 53.488 450.513 54.0853 449.147 55.28C447.782 56.432 447.099 58.48 447.099 61.424V78H436.155V42.288H447.099V48.24Z" fill="white"/>
<path d="M469.034 38.576C467.114 38.576 465.536 38.0213 464.298 36.912C463.104 35.76 462.507 34.352 462.507 32.688C462.507 30.9813 463.104 29.5733 464.298 28.464C465.536 27.312 467.114 26.736 469.034 26.736C470.912 26.736 472.448 27.312 473.642 28.464C474.88 29.5733 475.499 30.9813 475.499 32.688C475.499 34.352 474.88 35.76 473.642 36.912C472.448 38.0213 470.912 38.576 469.034 38.576ZM474.474 42.288V78H463.53V42.288H474.474Z" fill="white"/>
<path d="M502.31 68.72V78H496.741C492.773 78 489.68 77.04 487.461 75.12C485.243 73.1573 484.134 69.9787 484.134 65.584V51.376H479.781V42.288H484.134V33.584H495.078V42.288H502.246V51.376H495.078V65.712C495.078 66.7787 495.333 67.5467 495.845 68.016C496.357 68.4853 497.211 68.72 498.405 68.72H502.31Z" fill="white"/>
<path d="M542.069 59.568C542.069 60.592 542.005 61.6587 541.878 62.768H517.109C517.28 64.9867 517.984 66.6933 519.221 67.888C520.501 69.04 522.059 69.616 523.893 69.616C526.624 69.616 528.523 68.464 529.59 66.16H541.237C540.64 68.5067 539.552 70.6187 537.974 72.496C536.438 74.3733 534.496 75.8453 532.15 76.912C529.803 77.9787 527.179 78.512 524.277 78.512C520.779 78.512 517.664 77.7653 514.934 76.272C512.203 74.7787 510.07 72.6453 508.534 69.872C506.997 67.0987 506.229 63.856 506.229 60.144C506.229 56.432 506.976 53.1893 508.47 50.416C510.006 47.6427 512.139 45.5093 514.87 44.016C517.6 42.5227 520.736 41.776 524.277 41.776C527.733 41.776 530.806 42.5013 533.493 43.952C536.181 45.4027 538.272 47.472 539.766 50.16C541.302 52.848 542.069 55.984 542.069 59.568ZM530.87 56.688C530.87 54.8107 530.229 53.3173 528.949 52.208C527.669 51.0987 526.07 50.544 524.15 50.544C522.315 50.544 520.758 51.0773 519.478 52.144C518.24 53.2107 517.472 54.7253 517.173 56.688H530.87Z" fill="white"/>
<defs>
<linearGradient id="paint0_linear_1_67" x1="93" y1="27.75" x2="33.2269" y2="87.5536" gradientUnits="userSpaceOnUse">
<stop stop-color="#5C33D4"/>
<stop offset="1" stop-color="#EC61FF"/>
</linearGradient>
<linearGradient id="paint1_linear_1_67" x1="93" y1="27.75" x2="33.2269" y2="87.5536" gradientUnits="userSpaceOnUse">
<stop stop-color="#5C33D4"/>
<stop offset="1" stop-color="#904BFF"/>
</linearGradient>
<linearGradient id="paint2_linear_1_67" x1="57" y1="28" x2="46.8192" y2="89.6978" gradientUnits="userSpaceOnUse">
<stop stop-color="#904BFF"/>
<stop offset="1" stop-color="#5C33D4"/>
</linearGradient>
</defs>
</svg>
